<svg xmlns="http://www.w3.org/2000/svg" width="104.311" height="104.094" viewBox="0 0 104.311 104.094">
  <g id="scrolldown_text.7dd5e350" transform="translate(-2.448 -2.406)">
    <path id="Path_184" data-name="Path 184" d="M3.31-6.7C1.5-6.7.47-5.79.47-4.55c0,1.29,1.01,1.75,2.57,2.06.9.17,1.28.34,1.28.65,0,.38-.36.6-1.1.6a2.261,2.261,0,0,1-2.06-.98L.28-1.02A3.634,3.634,0,0,0,3.31.1C4.9.1,6.1-.64,6.1-1.93c0-1.16-.71-1.75-2.54-2.08-.94-.17-1.3-.35-1.3-.69,0-.38.37-.66,1.08-.66a2.016,2.016,0,0,1,1.84.97l.97-1.12A3.44,3.44,0,0,0,3.31-6.7Z" transform="translate(12.668 36.499) rotate(-62.117)" fill="#6b3d2b"/>
    <path id="Path_183" data-name="Path 183" d="M6.58-1.89,5.02-2.33A1.2,1.2,0,0,1,3.71-1.25c-.97,0-1.5-.71-1.5-2.05s.57-2.05,1.53-2.05c.68,0,1.06.26,1.25,1.08L6.5-4.88A2.618,2.618,0,0,0,3.68-6.7,3.064,3.064,0,0,0,.45-3.3,3.061,3.061,0,0,0,3.69.1,2.721,2.721,0,0,0,6.58-1.89Z" transform="matrix(0.609, -0.793, 0.793, 0.609, 16.119, 29.936)" fill="#6b3d2b"/>
    <path id="Path_182" data-name="Path 182" d="M4.86,0h1.9L5.09-2.59A1.864,1.864,0,0,0,6.37-4.5c0-1.36-.9-2.1-2.49-2.1H.73V0H2.42V-2.41H3.45ZM2.42-5.3H3.59c.73,0,1.05.25,1.05.83s-.32.84-1.05.84H2.42Z" transform="translate(20.891 23.707) rotate(-42.619)" fill="#6b3d2b"/>
    <path id="Path_181" data-name="Path 181" d="M3.69-6.7A3.061,3.061,0,0,0,.45-3.3,3.061,3.061,0,0,0,3.69.1,3.054,3.054,0,0,0,6.92-3.3,3.054,3.054,0,0,0,3.69-6.7Zm0,1.35c.95,0,1.47.7,1.47,2.05S4.64-1.25,3.69-1.25,2.21-1.95,2.21-3.3,2.73-5.35,3.69-5.35Z" transform="translate(26.647 18.364) rotate(-32.417)" fill="#6b3d2b"/>
    <path id="Path_180" data-name="Path 180" d="M2.2-1.2V-5.94H.657V0H5.184V-1.2Z" transform="translate(33.455 12.949) rotate(-22.674)" fill="#6b3d2b"/>
    <path id="Path_179" data-name="Path 179" d="M2.2-1.2V-5.94H.657V0H5.184V-1.2Z" transform="translate(39.997 10.227) rotate(-13.87)" fill="#6b3d2b"/>
    <path id="Path_178" data-name="Path 178" transform="translate(46.447 7.701) rotate(-7.741)" fill="#6b3d2b"/>
    <path id="Path_177" data-name="Path 177" d="M3.53-6.6H.73V0h2.8c2.07,0,3.2-1.19,3.2-3.3S5.6-6.6,3.53-6.6ZM3.36-1.3H2.45v-4h.91c1.12,0,1.61.68,1.61,2S4.48-1.3,3.36-1.3Z" transform="translate(49.939 9.114) rotate(-0.929)" fill="#6b3d2b"/>
    <path id="Path_176" data-name="Path 176" d="M3.69-6.7A3.061,3.061,0,0,0,.45-3.3,3.061,3.061,0,0,0,3.69.1,3.054,3.054,0,0,0,6.92-3.3,3.054,3.054,0,0,0,3.69-6.7Zm0,1.35c.95,0,1.47.7,1.47,2.05S4.64-1.25,3.69-1.25,2.21-1.95,2.21-3.3,2.73-5.35,3.69-5.35Z" transform="translate(58.23 8.995) rotate(9.97)" fill="#6b3d2b"/>
    <path id="Path_175" data-name="Path 175" d="M4.7-3.2l.29-1.61h.02l.3,1.61L6.09,0H7.96L9.87-6.6H8.09L7-1.36,5.79-6.6H4.23L3.04-1.35,1.95-6.6H.1L2,0H3.93Z" transform="translate(66.484 10.262) rotate(22.422)" fill="#6b3d2b"/>
    <path id="Path_174" data-name="Path 174" d="M6.68-6.6H5.16v3.33L5.2-2.03H5.19l-.5-1L2.64-6.6H.73V0H2.25V-3.33L2.21-4.57h.01l.5,1L4.77,0H6.68Z" transform="translate(77.031 14.79) rotate(35.053)" fill="#6b3d2b"/>
    <path id="Path_173" data-name="Path 173" transform="matrix(0.738, 0.675, -0.675, 0.738, 85.266, 18.351)" fill="#6b3d2b"/>
    <path id="Path_172" data-name="Path 172" transform="translate(87.79 20.668) rotate(46.601)" fill="#6b3d2b"/>
    <path id="Path_171" data-name="Path 171" transform="translate(90.147 23.168) rotate(50.735)" fill="#6b3d2b"/>
    <path id="Path_170" data-name="Path 170" d="M3.31-6.7C1.5-6.7.47-5.79.47-4.55c0,1.29,1.01,1.75,2.57,2.06.9.17,1.28.34,1.28.65,0,.38-.36.6-1.1.6a2.261,2.261,0,0,1-2.06-.98L.28-1.02A3.634,3.634,0,0,0,3.31.1C4.9.1,6.1-.64,6.1-1.93c0-1.16-.71-1.75-2.54-2.08-.94-.17-1.3-.35-1.3-.69,0-.38.37-.66,1.08-.66a2.016,2.016,0,0,1,1.84.97l.97-1.12A3.44,3.44,0,0,0,3.31-6.7Z" transform="translate(90.77 26.897) rotate(57.454)" fill="#6b3d2b"/>
    <path id="Path_169" data-name="Path 169" d="M6.58-1.89,5.02-2.33A1.2,1.2,0,0,1,3.71-1.25c-.97,0-1.5-.71-1.5-2.05s.57-2.05,1.53-2.05c.68,0,1.06.26,1.25,1.08L6.5-4.88A2.618,2.618,0,0,0,3.68-6.7,3.064,3.064,0,0,0,.45-3.3,3.061,3.061,0,0,0,3.69.1,2.721,2.721,0,0,0,6.58-1.89Z" transform="translate(94.777 33.138) rotate(67.095)" fill="#6b3d2b"/>
    <path id="Path_168" data-name="Path 168" d="M4.86,0h1.9L5.09-2.59A1.864,1.864,0,0,0,6.37-4.5c0-1.36-.9-2.1-2.49-2.1H.73V0H2.42V-2.41H3.45ZM2.42-5.3H3.59c.73,0,1.05.25,1.05.83s-.32.84-1.05.84H2.42Z" transform="matrix(0.223, 0.975, -0.975, 0.223, 97.837, 40.364)" fill="#6b3d2b"/>
    <path id="Path_167" data-name="Path 167" d="M3.69-6.7A3.061,3.061,0,0,0,.45-3.3,3.061,3.061,0,0,0,3.69.1,3.054,3.054,0,0,0,6.92-3.3,3.054,3.054,0,0,0,3.69-6.7Zm0,1.35c.95,0,1.47.7,1.47,2.05S4.64-1.25,3.69-1.25,2.21-1.95,2.21-3.3,2.73-5.35,3.69-5.35Z" transform="matrix(0.046, 0.999, -0.999, 0.046, 99.618, 48.013)" fill="#6b3d2b"/>
    <path id="Path_166" data-name="Path 166" d="M2.2-1.2V-5.94H.657V0H5.184V-1.2Z" transform="matrix(-0.121, 0.993, -0.993, -0.121, 100.942, 56.61)" fill="#6b3d2b"/>
    <path id="Path_165" data-name="Path 165" d="M2.2-1.2V-5.94H.657V0H5.184V-1.2Z" transform="translate(100.074 63.643) rotate(105.732)" fill="#6b3d2b"/>
    <path id="Path_164" data-name="Path 164" transform="translate(99.084 70.502) rotate(111.884)" fill="#6b3d2b"/>
    <path id="Path_163" data-name="Path 163" d="M3.53-6.6H.73V0h2.8c2.07,0,3.2-1.19,3.2-3.3S5.6-6.6,3.53-6.6ZM3.36-1.3H2.45v-4h.91c1.12,0,1.61.68,1.61,2S4.48-1.3,3.36-1.3Z" transform="matrix(-0.488, 0.873, -0.873, -0.488, 96.147, 72.875)" fill="#6b3d2b"/>
    <path id="Path_162" data-name="Path 162" d="M3.69-6.7A3.061,3.061,0,0,0,.45-3.3,3.061,3.061,0,0,0,3.69.1,3.054,3.054,0,0,0,6.92-3.3,3.054,3.054,0,0,0,3.69-6.7Zm0,1.35c.95,0,1.47.7,1.47,2.05S4.64-1.25,3.69-1.25,2.21-1.95,2.21-3.3,2.73-5.35,3.69-5.35Z" transform="matrix(-0.639, 0.769, -0.769, -0.639, 92.123, 80.095)" fill="#6b3d2b"/>
    <path id="Path_161" data-name="Path 161" d="M4.7-3.2l.29-1.61h.02l.3,1.61L6.09,0H7.96L9.87-6.6H8.09L7-1.36,5.79-6.6H4.23L3.04-1.35,1.95-6.6H.1L2,0H3.93Z" transform="matrix(-0.788, 0.615, -0.615, -0.788, 86.928, 86.625)" fill="#6b3d2b"/>
    <path id="Path_160" data-name="Path 160" d="M6.68-6.6H5.16v3.33L5.2-2.03H5.19l-.5-1L2.64-6.6H.73V0H2.25V-3.33L2.21-4.57h.01l.5,1L4.77,0H6.68Z" transform="matrix(-0.904, 0.428, -0.428, -0.904, 77.777, 93.565)" fill="#6b3d2b"/>
    <path id="Path_159" data-name="Path 159" transform="translate(70.615 98.965) rotate(162.146)" fill="#6b3d2b"/>
    <path id="Path_158" data-name="Path 158" transform="matrix(-0.972, 0.236, -0.236, -0.972, 67.345, 100.014)" fill="#6b3d2b"/>
    <path id="Path_157" data-name="Path 157" transform="matrix(-0.986, 0.165, -0.165, -0.986, 64.01, 100.82)" fill="#6b3d2b"/>
    <path id="Path_156" data-name="Path 156" d="M3.31-6.7C1.5-6.7.47-5.79.47-4.55c0,1.29,1.01,1.75,2.57,2.06.9.17,1.28.34,1.28.65,0,.38-.36.6-1.1.6a2.261,2.261,0,0,1-2.06-.98L.28-1.02A3.634,3.634,0,0,0,3.31.1C4.9.1,6.1-.64,6.1-1.93c0-1.16-.71-1.75-2.54-2.08-.94-.17-1.3-.35-1.3-.69,0-.38.37-.66,1.08-.66a2.016,2.016,0,0,1,1.84.97l.97-1.12A3.44,3.44,0,0,0,3.31-6.7Z" transform="matrix(-0.999, 0.048, -0.048, -0.999, 60.46, 99.509)" fill="#6b3d2b"/>
    <path id="Path_155" data-name="Path 155" d="M6.58-1.89,5.02-2.33A1.2,1.2,0,0,1,3.71-1.25c-.97,0-1.5-.71-1.5-2.05s.57-2.05,1.53-2.05c.68,0,1.06.26,1.25,1.08L6.5-4.88A2.618,2.618,0,0,0,3.68-6.7,3.064,3.064,0,0,0,.45-3.3,3.061,3.061,0,0,0,3.69.1,2.721,2.721,0,0,0,6.58-1.89Z" transform="translate(53.052 99.889) rotate(-173.275)" fill="#6b3d2b"/>
    <path id="Path_154" data-name="Path 154" d="M4.86,0h1.9L5.09-2.59A1.864,1.864,0,0,0,6.37-4.5c0-1.36-.9-2.1-2.49-2.1H.73V0H2.42V-2.41H3.45ZM2.42-5.3H3.59c.73,0,1.05.25,1.05.83s-.32.84-1.05.84H2.42Z" transform="matrix(-0.958, -0.288, 0.288, -0.958, 45.263, 98.978)" fill="#6b3d2b"/>
    <path id="Path_153" data-name="Path 153" d="M3.69-6.7A3.061,3.061,0,0,0,.45-3.3,3.061,3.061,0,0,0,3.69.1,3.054,3.054,0,0,0,6.92-3.3,3.054,3.054,0,0,0,3.69-6.7Zm0,1.35c.95,0,1.47.7,1.47,2.05S4.64-1.25,3.69-1.25,2.21-1.95,2.21-3.3,2.73-5.35,3.69-5.35Z" transform="translate(37.726 96.748) rotate(-152.976)" fill="#6b3d2b"/>
    <path id="Path_152" data-name="Path 152" d="M2.2-1.2V-5.94H.657V0H5.184V-1.2Z" transform="matrix(-0.801, -0.598, 0.598, -0.801, 29.601, 93.638)" fill="#6b3d2b"/>
    <path id="Path_151" data-name="Path 151" d="M2.2-1.2V-5.94H.657V0H5.184V-1.2Z" transform="translate(23.934 89.396) rotate(-134.573)" fill="#6b3d2b"/>
    <path id="Path_150" data-name="Path 150" transform="translate(18.465 85.136) rotate(-128.494)" fill="#6b3d2b"/>
    <path id="Path_149" data-name="Path 149" d="M3.53-6.6H.73V0h2.8c2.07,0,3.2-1.19,3.2-3.3S5.6-6.6,3.53-6.6ZM3.36-1.3H2.45v-4h.91c1.12,0,1.61.68,1.61,2S4.48-1.3,3.36-1.3Z" transform="translate(17.858 81.417) rotate(-121.229)" fill="#6b3d2b"/>
    <path id="Path_148" data-name="Path 148" d="M3.69-6.7A3.061,3.061,0,0,0,.45-3.3,3.061,3.061,0,0,0,3.69.1,3.054,3.054,0,0,0,6.92-3.3,3.054,3.054,0,0,0,3.69-6.7Zm0,1.35c.95,0,1.47.7,1.47,2.05S4.64-1.25,3.69-1.25,2.21-1.95,2.21-3.3,2.73-5.35,3.69-5.35Z" transform="matrix(-0.352, -0.936, 0.936, -0.352, 13.558, 74.348)" fill="#6b3d2b"/>
    <path id="Path_147" data-name="Path 147" d="M4.7-3.2l.29-1.61h.02l.3,1.61L6.09,0H7.96L9.87-6.6H8.09L7-1.36,5.79-6.6H4.23L3.04-1.35,1.95-6.6H.1L2,0H3.93Z" transform="matrix(-0.142, -0.99, 0.99, -0.142, 10.451, 66.604)" fill="#6b3d2b"/>
    <path id="Path_146" data-name="Path 146" d="M6.68-6.6H5.16v3.33L5.2-2.03H5.19l-.5-1L2.64-6.6H.73V0H2.25V-3.33L2.21-4.57h.01l.5,1L4.77,0H6.68Z" transform="matrix(0.075, -0.997, 0.997, 0.075, 8.975, 55.215)" fill="#6b3d2b"/>
    <path id="Path_145" data-name="Path 145" transform="translate(7.824 46.318) rotate(-78.245)" fill="#6b3d2b"/>
    <path id="Path_144" data-name="Path 144" transform="translate(8.527 42.959) rotate(-74.067)" fill="#6b3d2b"/>
    <path id="Path_143" data-name="Path 143" transform="translate(9.473 39.663) rotate(-69.89)" fill="#6b3d2b"/>
    <path id="Path_142" data-name="Path 142" transform="translate(10.657 36.443) rotate(-65.715)" fill="#6b3d2b"/>
    <path id="Path_141" data-name="Path 141" transform="matrix(0.477, -0.879, 0.879, 0.477, 12.075, 33.312)" fill="#6b3d2b"/>
  </g>
</svg>
